<svg width="24" height="24" viewBox="0 0 24 24" fill="none" xmlns="http://www.w3.org/2000/svg">
<path fill-rule="evenodd" clip-rule="evenodd" d="M21.1722 7.68397C21.2543 7.72659 21.3249 7.78831 21.3782 7.86393H21.3782C21.4859 8.01689 21.5123 8.21368 21.4487 8.39044L18.6867 16.5479C18.6046 16.7769 18.3875 16.9292 18.1443 16.9292H10.3081C10.0496 16.9292 9.82287 16.7574 9.75321 16.5087L6.5451 4.71854C6.38139 4.15285 6.14135 4.15285 6.06269 4.15285H3.57643C3.25803 4.15285 3 3.89483 3 3.57643C3 3.25803 3.25774 3 3.57645 3H6.063C6.41943 3 7.28845 3.13671 7.65416 4.40306L8.58672 7.619H20.9066C20.9991 7.61906 21.0902 7.64134 21.1722 7.68397ZM15.1441 19.5488C15.1441 18.7471 15.7937 18.0975 16.5953 18.0975C17.397 18.0975 18.0466 18.7471 18.0466 19.5488C18.0466 20.3504 17.397 21 16.5953 21C15.7937 21 15.1441 20.3504 15.1441 19.5488ZM9.91963 19.5488C9.91963 18.7471 10.5692 18.0975 11.3709 18.0975C12.1725 18.0975 12.8221 18.7471 12.8221 19.5488C12.8221 20.3504 12.1725 21 11.3709 21C10.5692 21 9.91963 20.3504 9.91963 19.5488Z" fill="white"/>
</svg>
