<svg width="18" height="18" viewBox="0 0 18 18" fill="none" xmlns="http://www.w3.org/2000/svg">
<path fill-rule="evenodd" clip-rule="evenodd" d="M12.548 4.82301H5.45502C4.37182 4.32441 3.51922 3.54561 3.11222 2.79141C2.73102 2.08581 2.71281 1.405 3.06122 0.874602C3.44942 0.314201 4.14762 0 4.98422 0C6.52023 0 8.27463 1.047 9.00163 3.30401C9.72843 1.047 11.4828 0 13.0188 0C13.8552 0 14.5536 0.314201 14.9336 0.862202C15.2903 1.4048 15.272 2.08581 14.8908 2.79161C14.4838 3.54581 13.6312 4.32441 12.548 4.82301ZM14.0012 1.4914C13.8476 1.27 13.4674 1.125 13.0186 1.125C11.7896 1.125 10.3598 2.09701 9.91823 4.21701C11.6496 4.34241 13.346 3.28381 13.9008 2.25721C13.9826 2.10561 14.156 1.7276 14.0012 1.4914ZM4.98422 1.125C4.53542 1.125 4.15542 1.27 3.99322 1.5038C3.84682 1.7276 4.02022 2.10561 4.10182 2.25681C4.62502 3.22541 6.14702 4.22741 7.78903 4.22741H7.78963C7.88803 4.22741 7.98623 4.22401 8.08463 4.21681C7.64303 2.09701 6.21322 1.125 4.98422 1.125ZM0.449801 8.76085C0.201601 8.76085 0 8.55905 0 8.31085V5.27324C0 5.02484 0.201601 4.82324 0.449801 4.82324H8.15622V8.76085H0.449801ZM9.84375 8.76085H17.5502C17.7984 8.76085 18 8.55905 18 8.31085V5.27324C18 5.02484 17.7984 4.82324 17.5502 4.82324H9.84375V8.76085ZM1.85605 17.1983C1.60785 17.1983 1.40625 16.9967 1.40625 16.7483V10.4482H8.15627V17.1983H1.85605ZM16.144 17.1983H9.84375V10.4482H16.5938V16.7483C16.5938 16.9967 16.3922 17.1983 16.144 17.1983Z" fill="#55524E"/>
</svg>
