<svg width="56" height="56" viewBox="0 0 56 56" fill="none" xmlns="http://www.w3.org/2000/svg">
<path fill-rule="evenodd" clip-rule="evenodd" d="M27.9999 39.416C24.4914 42.6584 20.258 43.5269 16.4419 42.7148C14.4635 42.2939 12.5983 41.4162 11.0067 40.1796C9.41307 38.9414 8.09475 37.3442 7.21359 35.4867C5.37334 31.6082 5.41687 26.6249 8.80498 21.4497C9.21923 20.8158 10.0718 20.6357 10.7094 21.0473C11.347 21.459 11.5281 22.3069 11.1141 22.9409C8.31946 27.2092 8.2432 31.2342 9.70588 34.3172C10.402 35.7846 11.4428 37.0461 12.7007 38.0233C13.9612 39.0026 15.4413 39.6984 17.0136 40.0329C19.789 40.6233 22.856 40.0721 25.5081 37.9461C24.9663 37.7504 24.4454 37.5453 23.946 37.3313C19.456 35.4073 16.3243 32.6676 14.6274 29.2499C12.9245 25.8201 12.6964 21.768 14.0195 17.2317C14.3368 16.1434 14.734 15.047 15.2116 13.9454L15.2146 13.9465C15.3905 13.5405 15.7607 13.2264 16.231 13.1408C19.2054 12.5953 22.481 13.6678 25.2834 15.7832C26.2551 16.5168 27.172 17.3753 28 18.3332C28.8281 17.3753 29.745 16.5168 30.7167 15.7832C33.5191 13.6678 36.7944 12.5953 39.7691 13.1408C40.2392 13.2264 40.6096 13.5405 40.7855 13.9465L40.7885 13.9454C41.266 15.047 41.663 16.1434 41.9806 17.2317C43.3037 21.768 43.0756 25.8201 41.3725 29.2499C39.6758 32.6676 36.5441 35.4073 32.0541 37.3313C31.5547 37.5453 31.0338 37.7504 30.4918 37.9461C33.1441 40.0721 36.2111 40.6233 38.9864 40.0329C40.5588 39.6984 42.0389 39.0026 43.2994 38.0233C44.5573 37.0461 45.5978 35.7846 46.2942 34.3172C47.7569 31.2342 47.6806 27.2092 44.886 22.9409C44.472 22.3069 44.6531 21.459 45.2907 21.0473C45.9283 20.6357 46.7809 20.8158 47.1951 21.4497C50.5831 26.6249 50.6267 31.6082 48.7865 35.4867C47.9053 37.3442 46.587 38.9414 44.9931 40.1796C43.4017 41.4162 41.5366 42.2939 39.5582 42.7148C35.7421 43.5269 31.5085 42.6584 27.9999 39.416ZM31.091 34.7556C34.894 33.101 37.5179 30.8251 38.9018 28.0377C40.295 25.2319 40.4609 21.8463 39.3371 17.9935C39.1269 17.2726 38.8657 16.5235 38.5533 15.7471C36.5509 15.6286 34.3485 16.4736 32.3782 17.961C31.4012 18.6986 30.485 19.5952 29.679 20.6139C30.765 22.3619 31.5697 24.3283 31.9563 26.4118C32.4522 29.0862 32.2592 31.9391 31.091 34.7556ZM26.3211 20.6139C25.5151 19.5952 24.5988 18.6986 23.6219 17.961C21.6516 16.4736 19.4492 15.6286 17.4467 15.7471C17.1342 16.5235 16.8731 17.2726 16.663 17.9935C15.5392 21.8463 15.7051 25.2319 17.0983 28.0377C18.4822 30.8252 21.1064 33.1011 24.9091 34.7558C23.7409 31.9392 23.5478 29.0862 24.0438 26.4118C24.4304 24.3283 25.235 22.3619 26.3211 20.6139ZM28 23.2409C28.5791 24.3924 29.0108 25.6257 29.2481 26.9054C29.7192 29.4448 29.4258 32.1882 28 34.8646C26.5743 32.1882 26.2808 29.4448 26.752 26.9054C26.9893 25.6257 27.421 24.3924 28 23.2409Z" fill="white"/>
</svg>
