<svg width="208" height="480" viewBox="0 0 208 480" fill="none" xmlns="http://www.w3.org/2000/svg">
<path d="M163.117 376.247H207.633L153.644 104.366H130.308C128.436 104.366 128.138 101.706 129.95 101.233C174.591 89.5813 207.566 48.6836 207.566 0H0.256456C0.256456 48.6836 33.231 89.5813 77.8725 101.233C79.6842 101.706 79.3847 104.366 77.5142 104.366H54.0808L0.0078125 376.247H44.7036C52.8138 376.247 55.9027 386.958 49.0254 391.296C19.7387 409.767 0.256456 442.581 0.256456 480H207.566C207.566 442.581 188.082 409.767 158.795 391.296C151.918 386.958 155.007 376.247 163.117 376.247Z" fill="url(#paint0_linear_1536_127362)"/>
<defs>
<linearGradient id="paint0_linear_1536_127362" x1="103.821" y1="0" x2="103.821" y2="480" gradientUnits="userSpaceOnUse">
<stop stop-color="#D6CEC1"/>
<stop offset="1" stop-color="#E7E2D9"/>
</linearGradient>
</defs>
</svg>
