<svg width="32" height="32" viewBox="0 0 32 32" fill="none" xmlns="http://www.w3.org/2000/svg">
<path d="M14.6977 22.3945C16.4055 22.3941 18.0642 21.8224 19.4096 20.7704L23.6394 25L25 23.6395L20.7701 19.4099C21.8228 18.0645 22.3949 16.4055 22.3953 14.6972C22.3953 10.4532 18.9419 7 14.6977 7C10.4534 7 7 10.4532 7 14.6972C7 18.9413 10.4534 22.3945 14.6977 22.3945ZM14.6977 8.92431C17.8816 8.92431 20.4709 11.5135 20.4709 14.6972C20.4709 17.881 17.8816 20.4702 14.6977 20.4702C11.5137 20.4702 8.92441 17.881 8.92441 14.6972C8.92441 11.5135 11.5137 8.92431 14.6977 8.92431Z" fill="white"/>
</svg>
